<svg xmlns="http://www.w3.org/2000/svg" version="1.1" xmlns:xlink="http://www.w3.org/1999/xlink" xmlns:svgjs="http://svgjs.com/svgjs" width="1440" height="560" preserveAspectRatio="none" viewBox="0 0 1440 560"><g mask="url(&quot;#SvgjsMask1080&quot;)" fill="none"><rect width="1440" height="560" x="0" y="0" fill="rgba(0, 18, 51, 1)"></rect><path d="M1536 560L0 560 L0 295.97Q34.95 258.93, 72 293.88Q151.32 253.2, 192 332.53Q265.62 286.14, 312 359.76Q319.44 295.2, 384 302.64Q410.65 257.29, 456 283.95Q534.25 242.2, 576 320.45Q656.16 280.62, 696 360.78Q721.5 314.27, 768 339.77Q799.99 251.75, 888 283.74Q929.84 253.58, 960 295.42Q1029.9 293.33, 1032 363.23Q1044.45 303.69, 1104 316.14Q1180.64 272.78, 1224 349.43Q1236.78 290.21, 1296 302.99Q1346.86 233.85, 1416 284.7Q1509.29 257.99, 1536 351.27z" fill="rgba(51, 65, 92, 1)"></path><path d="M1464 560L0 560 L0 432.99Q35.99 396.98, 72 432.96Q77.75 366.7, 144 372.45Q196.13 304.57, 264 356.7Q350.34 323.04, 384 409.38Q426.77 332.15, 504 374.93Q550.31 349.25, 576 395.56Q613.91 313.47, 696 351.38Q786.02 321.4, 816 411.43Q885.92 361.35, 936 431.27Q976.6 351.87, 1056 392.47Q1105.32 369.79, 1128 419.11Q1145.6 364.71, 1200 382.31Q1223.34 333.65, 1272 356.99Q1361.96 326.95, 1392 416.91Q1435.05 387.96, 1464 431z" fill="rgba(125, 133, 151, 1)"></path><path d="M1488 560L0 560 L0 457.15Q43.69 380.83, 120 424.52Q218.9 403.42, 240 502.32Q261.81 452.13, 312 473.93Q362.94 404.87, 432 455.8Q486.7 438.5, 504 493.2Q529.28 446.48, 576 471.76Q619.87 395.63, 696 439.49Q747.04 370.53, 816 421.58Q898.92 384.5, 936 467.42Q986.48 445.9, 1008 496.39Q1041.77 410.16, 1128 443.93Q1208.82 404.75, 1248 485.56Q1294.15 411.72, 1368 457.87Q1419.09 388.96, 1488 440.04z" fill="rgba(151, 157, 172, 1)"></path><path d="M1464 560L0 560 L0 495.66Q62.15 485.81, 72 547.95Q102.75 506.7, 144 537.44Q174.63 496.08, 216 526.71Q295.06 485.77, 336 564.83Q371.38 480.21, 456 515.58Q482.45 470.03, 528 496.48Q616.58 465.06, 648 553.64Q663.71 497.35, 720 513.05Q764.25 485.29, 792 529.54Q874.93 492.47, 912 575.41Q915.24 506.65, 984 509.89Q1034.53 440.41, 1104 490.94Q1208.52 475.46, 1224 579.97Q1257.89 493.87, 1344 527.76Q1421.2 484.96, 1464 562.16z" fill="rgba(243, 243, 243, 1)"></path></g><defs><mask id="SvgjsMask1080"><rect width="1440" height="560" fill="#ffffff"></rect></mask></defs></svg>