<svg xmlns="http://www.w3.org/2000/svg" version="1.1" xmlns:xlink="http://www.w3.org/1999/xlink" xmlns:svgjs="http://svgjs.com/svgjs" width="1440" height="560" preserveAspectRatio="none" viewBox="0 0 1440 560"><g mask="url(&quot;#SvgjsMask1271&quot;)" fill="none"><rect width="1440" height="560" x="0" y="0" fill="rgba(0, 18, 51, 1)"></rect><path d="M1464 560L0 560 L0 208.08Q321.96 410.05, 120 732.01Q83.88 575.88, 240 539.76Q221.38 449.14, 312 430.53Q349.32 347.85, 432 385.16Q468.97 302.13, 552 339.1Q507.18 174.28, 672 129.46Q947.53 333, 744 608.53Q572.88 365.42, 816 194.3Q1032.6 338.89, 888 555.49Q1013.5 609, 960 734.5Q853.84 556.34, 1032 450.17Q937.4 235.57, 1152 140.97Q1494.76 363.73, 1272 706.48Q1012.93 375.42, 1344 116.35Q1666.25 318.6, 1464 640.85z" fill="rgba(51, 65, 92, 0)"></path></g><defs><mask id="SvgjsMask1271"><rect width="1440" height="560" fill="#ffffff"></rect></mask></defs></svg>