<svg xmlns="http://www.w3.org/2000/svg" version="1.1" xmlns:xlink="http://www.w3.org/1999/xlink" xmlns:svgjs="http://svgjs.com/svgjs" width="1440" height="560" preserveAspectRatio="none" viewBox="0 0 1440 560"><g mask="url(&quot;#SvgjsMask1316&quot;)" fill="none"><path d="M1512 560L0 560 L0 351.62Q104.97 336.59, 120 441.55Q121.25 322.8, 240 324.04Q263.87 275.91, 312 299.78Q316.79 232.56, 384 237.35Q428.29 161.64, 504 205.94Q597.88 179.82, 624 273.7Q736.02 265.72, 744 377.74Q785.82 299.56, 864 341.38Q870.05 275.43, 936 281.47Q936.55 210.03, 1008 210.58Q1106.62 189.2, 1128 287.82Q1200.3 240.12, 1248 312.42Q1346.81 339.23, 1320 438.03Q1305.93 351.96, 1392 337.89Q1436.18 262.07, 1512 306.26z" fill="rgba(125, 133, 151, 1)"></path></g><defs><mask id="SvgjsMask1316"><rect width="1440" height="560" fill="#ffffff"></rect></mask></defs></svg>