<svg xmlns="http://www.w3.org/2000/svg" version="1.1" xmlns:xlink="http://www.w3.org/1999/xlink" xmlns:svgjs="http://svgjs.com/svgjs" width="1440" height="560" preserveAspectRatio="none" viewBox="0 0 1440 560"><g mask="url(&quot;#SvgjsMask1309&quot;)" fill="none"><path d="M1512 560L0 560 L0 446.69Q56.78 383.47, 120 440.25Q229.71 429.96, 240 539.68Q263.01 490.69, 312 513.7Q318.74 448.44, 384 455.18Q391.81 343, 504 350.81Q520.96 247.77, 624 264.73Q672.19 192.92, 744 241.11Q764.24 189.35, 816 209.59Q1025.2 298.8, 936 508Q916.99 368.99, 1056 349.98Q1052.51 274.49, 1128 271Q1141.88 212.88, 1200 226.77Q1252.2 158.98, 1320 211.18Q1371.76 190.94, 1392 242.69Q1495.69 226.38, 1512 330.08z" fill="rgba(92, 103, 125, 1)"></path></g><defs><mask id="SvgjsMask1309"><rect width="1440" height="560" fill="#ffffff"></rect></mask></defs></svg>