<svg xmlns="http://www.w3.org/2000/svg" version="1.1" xmlns:xlink="http://www.w3.org/1999/xlink" xmlns:svgjs="http://svgjs.com/svgjs" width="1440" height="560" preserveAspectRatio="none" viewBox="0 0 1440 560"><g mask="url(&quot;#SvgjsMask1324&quot;)" fill="none"><path d="M1464 560L0 560 L0 295.71Q200.68 424.38, 72 625.06Q-68.8 364.26, 192 223.45Q296.35 255.8, 264 360.15Q354.09 378.24, 336 468.33Q379.69 440.02, 408 483.71Q468.29 472, 480 532.28Q482.58 462.86, 552 465.44Q535.34 376.78, 624 360.12Q655.55 271.67, 744 303.22Q792.62 279.84, 816 328.46Q926.74 319.19, 936 429.93Q1103.37 477.29, 1056 644.66Q935.33 451.99, 1128 331.31Q1281.02 412.33, 1200 565.35Q1184.76 478.11, 1272 462.86Q1229.57 348.43, 1344 305.99Q1369.11 211.1, 1464 236.2z" fill="rgba(151, 157, 172, 1)"></path></g><defs><mask id="SvgjsMask1324"><rect width="1440" height="560" fill="#ffffff"></rect></mask></defs></svg>