<svg xmlns="http://www.w3.org/2000/svg" version="1.1" xmlns:xlink="http://www.w3.org/1999/xlink" xmlns:svgjs="http://svgjs.com/svgjs" width="1440" height="560" preserveAspectRatio="none" viewBox="0 0 1440 560"><g mask="url(&quot;#SvgjsMask1362&quot;)" fill="none"><path d="M1464 560L0 560 L0 496.34Q120.47 496.81, 120 617.29Q86.16 511.45, 192 477.61Q213.17 426.78, 264 447.95Q348.62 412.56, 384 497.18Q429.39 470.57, 456 515.95Q500.73 440.68, 576 485.41Q630.53 419.95, 696 474.48Q798.43 456.91, 816 559.35Q817.03 440.38, 936 441.42Q951.82 385.25, 1008 401.07Q1056.64 377.72, 1080 426.36Q1151.93 426.3, 1152 498.23Q1156.65 382.88, 1272 387.53Q1351.69 395.22, 1344 474.91Q1460.28 471.19, 1464 587.46z" fill="rgba(243, 243, 243, 1)"></path></g><defs><mask id="SvgjsMask1362"><rect width="1440" height="560" fill="#ffffff"></rect></mask></defs></svg>