<svg xmlns="http://www.w3.org/2000/svg" version="1.1" xmlns:xlink="http://www.w3.org/1999/xlink" xmlns:svgjs="http://svgjs.com/svgjs" width="1440" height="560" preserveAspectRatio="none" viewBox="0 0 1440 560"><g mask="url(&quot;#SvgjsMask1281&quot;)" fill="none"><path d="M1512 560L0 560 L0 584.71Q-138.29 326.43, 120 188.14Q311.85 259.99, 240 451.84Q139.13 230.97, 360 130.1Q605.35 303.45, 432 548.8Q302.68 347.48, 504 218.16Q492.54 134.69, 576 123.23Q815.17 290.4, 648 529.58Q583.88 393.46, 720 329.34Q699.76 189.1, 840 168.87Q1125.04 381.91, 912 666.95Q809.88 492.83, 984 390.71Q1217.37 504.08, 1104 737.44Q832.13 393.58, 1176 121.71Q1353.64 227.35, 1248 404.99Q1427.81 512.8, 1320 692.6Q1131.46 384.07, 1440 195.53Q1694.34 377.87, 1512 632.21z" fill="rgba(51, 65, 92, 1)"></path></g><defs><mask id="SvgjsMask1281"><rect width="1440" height="560" fill="#ffffff"></rect></mask></defs></svg>